{"title":"Mai.Dire.Grande.Fratello.Show.2009.1x03.DVB-TRip.MP3.iTA.XviD.fi","uid":5137944,"size":735617024,"categoryP":"video","categoryS":"tv_shows","magnet":"?xt=urn:btih:78071c7667d620f65f9c30a3820dea22c86de2e8&amp;dn=Mai.Dire.Grande.Fratello.Show.2009.1x03.DVB-TRip.MP3.iTA.XviD.fi&amp;tr=udp%3A%2F%2Ftracker.openbittorrent.com%3A80&amp;tr=udp%3A%2F%2Fopen.demonii.com%3A1337&amp;tr=udp%3A%2F%2Ftracker.coppersurfer.tk%3A6969&amp;tr=udp%3A%2F%2Fexodus.desync.com%3A6969","seeders":0,"leechers":1,"uploader":null,"files":1,"time":1256656992,"description":"Taken from http://forum.tntvillage.scambioetico.org/tntforum/index.php?showtopic=163096\n\n\nGeneral\nComplete name                    : C:Mai.Dire.Grande.Fratello.Show.2009.1x03.DVB-TRip.MP3.iTA.XviD.firefox.avi\nFormat                           : AVI\nFormat/Info                      : Audio Video Interleave\nFile size                        : 702 MiB\nDuration                         : 1h 29mn\nOverall bit rate                 : 1 094 Kbps\nWriting application              : VirtualDubMod 1.5.4.1 (build 2178/release)\nWriting library                  : VirtualDubMod build 2178/release\n\nVideo\nID                               : 0\nFormat                           : MPEG-4 Visual\nFormat profile                   : AdvancedSimple@L5\nFormat settings, BVOP            : Yes\nFormat settings, QPel            : No\nFormat settings, GMC             : No warppoints\nFormat settings, Matrix          : Custom\nCodec ID                         : XVID\nCodec ID/Hint                    : XviD\nDuration                         : 1h 29mn\nBit rate                         : 982 Kbps\nWidth                            : 640 pixels\nHeight                           : 480 pixels\nDisplay aspect ratio             : 4:3\nFrame rate                       : 25.000 fps\nResolution                       : 24 bits\nColorimetry                      : 4:2:0\nScan type                        : Progressive\nBits/(Pixel*Frame)               : 0.128\nStream size                      : 630 MiB (90%)\nWriting library                  : XviD 1.2.1 (UTC 2008-12-04)\n\nAudio\nID                               : 1\nFormat                           : MPEG Audio\nFormat version                   : Version 1\nFormat profile                   : Layer 3\nCodec ID                         : 55\nCodec ID/Hint                    : MP3\nDuration                         : 1h 29mn\nBit rate mode                    : Variable\nBit rate                         : 98.9 Kbps\nChannel(s)                       : 2 channels\nSampling rate                    : 48.0 KHz\nResolution                       : 16 bits\nStream size                      : 63.4 MiB (9%)\nAlignment                        : Aligned on interleaves\nInterleave, duration             : 24 ms (0.60 video frame)\nInterleave, preload duration     : 508 ms\n\n","torrent":{"xt":"urn:btih:78071c7667d620f65f9c30a3820dea22c86de2e8","amp;dn":"Mai.Dire.Grande.Fratello.Show.2009.1x03.DVB-TRip.MP3.iTA.XviD.fi","amp;tr":["udp%3A%2F%2Ftracker.openbittorrent.com%3A80","udp%3A%2F%2Fopen.demonii.com%3A1337","udp%3A%2F%2Ftracker.coppersurfer.tk%3A6969","udp%3A%2F%2Fexodus.desync.com%3A6969"],"infoHash":"78071c7667d620f65f9c30a3820dea22c86de2e8","infoHashBuffer":{"type":"Buffer","data":[120,7,28,118,103,214,32,246,95,156,48,163,130,13,234,34,200,109,226,232]},"announce":[],"urlList":[]}}